<svg xmlns="http://www.w3.org/2000/svg" viewBox="0 0 160 160" width="160" height="160">
  <rect width="160" height="160" fill="none"/>

  <!-- sky blocks -->
  <g fill="#A7D8FF">
    <rect x="0" y="0" width="40" height="40"/>
    <rect x="40" y="0" width="40" height="40"/>
    <rect x="0" y="40" width="40" height="40"/>
    <rect x="80" y="0" width="20" height="20"/>
    <rect x="100" y="0" width="20" height="20"/>
    <rect x="80" y="20" width="20" height="20"/>

    <rect x="0" y="80" width="20" height="20"/>
    <rect x="20" y="80" width="20" height="20"/>
    <rect x="0" y="100" width="20" height="20"/>
  </g>

  <!-- lavender blocks -->
  <g fill="#EEE9FF">
    <rect x="60" y="20" width="20" height="20"/>
    <rect x="60" y="40" width="20" height="20"/>
    <rect x="40" y="60" width="20" height="20"/>
    <rect x="60" y="60" width="20" height="20"/>

    <rect x="20" y="120" width="20" height="20"/>
    <rect x="40" y="120" width="20" height="20"/>
    <rect x="20" y="140" width="20" height="20"/>
  </g>

  <!-- paper blocks -->
  <g fill="#FFFFFF">
    <rect x="100" y="20" width="20" height="20"/>
    <rect x="120" y="20" width="20" height="20"/>
    <rect x="120" y="40" width="20" height="20"/>
    <rect x="140" y="40" width="20" height="20"/>
    <rect x="140" y="60" width="20" height="20"/>
  </g>
</svg>
